<mxfile host="app.diagrams.net" modified="2022-09-02T07:21:55.635Z" agent="5.0 (Windows NT 10.0; Win64; x64) AppleWebKit/537.36 (KHTML, like Gecko) Chrome/104.0.0.0 Safari/537.36" etag="jGatidh6wMQzuPyOkl-x" version="20.2.7" type="github">
  <diagram id="xa5WF_LHemcqQHw-kqxx" name="Page-1">
    <mxGraphModel dx="1038" dy="571" grid="1" gridSize="10" guides="1" tooltips="1" connect="1" arrows="1" fold="1" page="1" pageScale="1" pageWidth="850" pageHeight="1100" math="0" shadow="0">
      <root>
        <mxCell id="0" />
        <mxCell id="1" parent="0" />
        <mxCell id="nO0uFSHonunVZNYL5XH_-17" style="edgeStyle=orthogonalEdgeStyle;rounded=0;orthogonalLoop=1;jettySize=auto;html=1;entryX=0;entryY=0.5;entryDx=0;entryDy=0;" edge="1" parent="1" source="nO0uFSHonunVZNYL5XH_-1" target="nO0uFSHonunVZNYL5XH_-2">
          <mxGeometry relative="1" as="geometry" />
        </mxCell>
        <mxCell id="nO0uFSHonunVZNYL5XH_-1" value="User" style="sketch=0;outlineConnect=0;fontColor=#232F3E;gradientColor=none;strokeColor=#232F3E;fillColor=#ffffff;dashed=0;verticalLabelPosition=bottom;verticalAlign=top;align=center;html=1;fontSize=12;fontStyle=0;aspect=fixed;shape=mxgraph.aws4.resourceIcon;resIcon=mxgraph.aws4.user;" vertex="1" parent="1">
          <mxGeometry x="40" y="250" width="60" height="60" as="geometry" />
        </mxCell>
        <mxCell id="nO0uFSHonunVZNYL5XH_-13" style="edgeStyle=orthogonalEdgeStyle;rounded=0;orthogonalLoop=1;jettySize=auto;html=1;entryX=0;entryY=0.5;entryDx=0;entryDy=0;" edge="1" parent="1" source="nO0uFSHonunVZNYL5XH_-2" target="nO0uFSHonunVZNYL5XH_-3">
          <mxGeometry relative="1" as="geometry" />
        </mxCell>
        <mxCell id="nO0uFSHonunVZNYL5XH_-14" style="edgeStyle=orthogonalEdgeStyle;rounded=0;orthogonalLoop=1;jettySize=auto;html=1;entryX=0;entryY=0.5;entryDx=0;entryDy=0;" edge="1" parent="1" source="nO0uFSHonunVZNYL5XH_-2" target="nO0uFSHonunVZNYL5XH_-4">
          <mxGeometry relative="1" as="geometry" />
        </mxCell>
        <mxCell id="nO0uFSHonunVZNYL5XH_-18" style="edgeStyle=orthogonalEdgeStyle;rounded=0;orthogonalLoop=1;jettySize=auto;html=1;entryX=0;entryY=0.5;entryDx=0;entryDy=0;" edge="1" parent="1" source="nO0uFSHonunVZNYL5XH_-2" target="nO0uFSHonunVZNYL5XH_-5">
          <mxGeometry relative="1" as="geometry" />
        </mxCell>
        <mxCell id="nO0uFSHonunVZNYL5XH_-19" style="edgeStyle=orthogonalEdgeStyle;rounded=0;orthogonalLoop=1;jettySize=auto;html=1;entryX=0;entryY=0.5;entryDx=0;entryDy=0;" edge="1" parent="1" source="nO0uFSHonunVZNYL5XH_-2" target="nO0uFSHonunVZNYL5XH_-6">
          <mxGeometry relative="1" as="geometry">
            <Array as="points">
              <mxPoint x="360" y="280" />
              <mxPoint x="360" y="220" />
              <mxPoint x="520" y="220" />
              <mxPoint x="520" y="160" />
            </Array>
          </mxGeometry>
        </mxCell>
        <mxCell id="nO0uFSHonunVZNYL5XH_-2" value="API Gateway/Proxy/Router" style="shape=hexagon;perimeter=hexagonPerimeter2;whiteSpace=wrap;html=1;fixedSize=1;" vertex="1" parent="1">
          <mxGeometry x="160" y="235" width="160" height="90" as="geometry" />
        </mxCell>
        <mxCell id="nO0uFSHonunVZNYL5XH_-3" value="Web Pages 1" style="whiteSpace=wrap;html=1;aspect=fixed;" vertex="1" parent="1">
          <mxGeometry x="400" y="120" width="80" height="80" as="geometry" />
        </mxCell>
        <mxCell id="nO0uFSHonunVZNYL5XH_-4" value="Web Pages 2" style="whiteSpace=wrap;html=1;aspect=fixed;" vertex="1" parent="1">
          <mxGeometry x="400" y="240" width="80" height="80" as="geometry" />
        </mxCell>
        <mxCell id="nO0uFSHonunVZNYL5XH_-5" value="Web Pages 3" style="whiteSpace=wrap;html=1;aspect=fixed;" vertex="1" parent="1">
          <mxGeometry x="400" y="360" width="80" height="80" as="geometry" />
        </mxCell>
        <mxCell id="nO0uFSHonunVZNYL5XH_-6" value="Service 1" style="whiteSpace=wrap;html=1;aspect=fixed;" vertex="1" parent="1">
          <mxGeometry x="560" y="120" width="80" height="80" as="geometry" />
        </mxCell>
        <mxCell id="nO0uFSHonunVZNYL5XH_-7" value="Service 2" style="whiteSpace=wrap;html=1;aspect=fixed;" vertex="1" parent="1">
          <mxGeometry x="720" y="120" width="80" height="80" as="geometry" />
        </mxCell>
        <mxCell id="nO0uFSHonunVZNYL5XH_-8" value="Service 3" style="whiteSpace=wrap;html=1;aspect=fixed;" vertex="1" parent="1">
          <mxGeometry x="560" y="240" width="80" height="80" as="geometry" />
        </mxCell>
        <mxCell id="nO0uFSHonunVZNYL5XH_-10" value="Service 6" style="whiteSpace=wrap;html=1;aspect=fixed;" vertex="1" parent="1">
          <mxGeometry x="720" y="360" width="80" height="80" as="geometry" />
        </mxCell>
        <mxCell id="nO0uFSHonunVZNYL5XH_-11" value="Service 5" style="whiteSpace=wrap;html=1;aspect=fixed;" vertex="1" parent="1">
          <mxGeometry x="560" y="360" width="80" height="80" as="geometry" />
        </mxCell>
        <mxCell id="nO0uFSHonunVZNYL5XH_-12" value="Service 4" style="whiteSpace=wrap;html=1;aspect=fixed;" vertex="1" parent="1">
          <mxGeometry x="720" y="240" width="80" height="80" as="geometry" />
        </mxCell>
        <mxCell id="nO0uFSHonunVZNYL5XH_-20" value="" style="endArrow=none;html=1;rounded=0;" edge="1" parent="1" source="nO0uFSHonunVZNYL5XH_-3">
          <mxGeometry width="50" height="50" relative="1" as="geometry">
            <mxPoint x="510" y="210" as="sourcePoint" />
            <mxPoint x="560" y="160" as="targetPoint" />
          </mxGeometry>
        </mxCell>
        <mxCell id="nO0uFSHonunVZNYL5XH_-22" value="" style="endArrow=none;html=1;rounded=0;entryX=0.5;entryY=1;entryDx=0;entryDy=0;" edge="1" parent="1" target="nO0uFSHonunVZNYL5XH_-6">
          <mxGeometry width="50" height="50" relative="1" as="geometry">
            <mxPoint x="600" y="240" as="sourcePoint" />
            <mxPoint x="650" y="200" as="targetPoint" />
          </mxGeometry>
        </mxCell>
        <mxCell id="nO0uFSHonunVZNYL5XH_-24" value="" style="endArrow=none;html=1;rounded=0;entryX=0;entryY=0.5;entryDx=0;entryDy=0;" edge="1" parent="1" source="nO0uFSHonunVZNYL5XH_-4" target="nO0uFSHonunVZNYL5XH_-8">
          <mxGeometry width="50" height="50" relative="1" as="geometry">
            <mxPoint x="480" y="330" as="sourcePoint" />
            <mxPoint x="550.7106781186548" y="280" as="targetPoint" />
          </mxGeometry>
        </mxCell>
        <mxCell id="nO0uFSHonunVZNYL5XH_-26" value="" style="endArrow=none;html=1;rounded=0;exitX=1;exitY=0.5;exitDx=0;exitDy=0;entryX=0;entryY=0.5;entryDx=0;entryDy=0;" edge="1" parent="1" source="nO0uFSHonunVZNYL5XH_-5" target="nO0uFSHonunVZNYL5XH_-11">
          <mxGeometry width="50" height="50" relative="1" as="geometry">
            <mxPoint x="550" y="440" as="sourcePoint" />
            <mxPoint x="600" y="390" as="targetPoint" />
          </mxGeometry>
        </mxCell>
        <mxCell id="nO0uFSHonunVZNYL5XH_-27" value="" style="endArrow=none;html=1;rounded=0;entryX=0.5;entryY=1;entryDx=0;entryDy=0;exitX=0.5;exitY=0;exitDx=0;exitDy=0;" edge="1" parent="1" source="nO0uFSHonunVZNYL5XH_-5" target="nO0uFSHonunVZNYL5XH_-4">
          <mxGeometry width="50" height="50" relative="1" as="geometry">
            <mxPoint x="430" y="360" as="sourcePoint" />
            <mxPoint x="480" y="310" as="targetPoint" />
          </mxGeometry>
        </mxCell>
        <mxCell id="nO0uFSHonunVZNYL5XH_-28" value="" style="endArrow=none;html=1;rounded=0;entryX=0.5;entryY=1;entryDx=0;entryDy=0;" edge="1" parent="1" source="nO0uFSHonunVZNYL5XH_-11" target="nO0uFSHonunVZNYL5XH_-8">
          <mxGeometry width="50" height="50" relative="1" as="geometry">
            <mxPoint x="590" y="370" as="sourcePoint" />
            <mxPoint x="640" y="320" as="targetPoint" />
          </mxGeometry>
        </mxCell>
        <mxCell id="nO0uFSHonunVZNYL5XH_-29" value="" style="endArrow=none;html=1;rounded=0;exitX=1;exitY=0.5;exitDx=0;exitDy=0;entryX=0;entryY=0.5;entryDx=0;entryDy=0;" edge="1" parent="1" source="nO0uFSHonunVZNYL5XH_-6" target="nO0uFSHonunVZNYL5XH_-7">
          <mxGeometry width="50" height="50" relative="1" as="geometry">
            <mxPoint x="660" y="210" as="sourcePoint" />
            <mxPoint x="710" y="160" as="targetPoint" />
          </mxGeometry>
        </mxCell>
        <mxCell id="nO0uFSHonunVZNYL5XH_-30" value="" style="endArrow=none;html=1;rounded=0;entryX=0;entryY=0.5;entryDx=0;entryDy=0;exitX=1;exitY=0.5;exitDx=0;exitDy=0;" edge="1" parent="1" source="nO0uFSHonunVZNYL5XH_-8" target="nO0uFSHonunVZNYL5XH_-12">
          <mxGeometry width="50" height="50" relative="1" as="geometry">
            <mxPoint x="650" y="330" as="sourcePoint" />
            <mxPoint x="700" y="280" as="targetPoint" />
          </mxGeometry>
        </mxCell>
        <mxCell id="nO0uFSHonunVZNYL5XH_-31" value="" style="endArrow=none;html=1;rounded=0;entryX=1;entryY=0.5;entryDx=0;entryDy=0;" edge="1" parent="1" source="nO0uFSHonunVZNYL5XH_-10" target="nO0uFSHonunVZNYL5XH_-11">
          <mxGeometry width="50" height="50" relative="1" as="geometry">
            <mxPoint x="649.2893218813452" y="450" as="sourcePoint" />
            <mxPoint x="649.2893218813452" y="400" as="targetPoint" />
          </mxGeometry>
        </mxCell>
        <mxCell id="nO0uFSHonunVZNYL5XH_-32" value="" style="endArrow=none;html=1;rounded=0;entryX=0.5;entryY=1;entryDx=0;entryDy=0;exitX=0.5;exitY=0;exitDx=0;exitDy=0;" edge="1" parent="1" source="nO0uFSHonunVZNYL5XH_-12" target="nO0uFSHonunVZNYL5XH_-7">
          <mxGeometry width="50" height="50" relative="1" as="geometry">
            <mxPoint x="750" y="250" as="sourcePoint" />
            <mxPoint x="800" y="200" as="targetPoint" />
          </mxGeometry>
        </mxCell>
        <mxCell id="nO0uFSHonunVZNYL5XH_-33" value="" style="endArrow=none;html=1;rounded=0;entryX=0.5;entryY=1;entryDx=0;entryDy=0;exitX=0.5;exitY=0;exitDx=0;exitDy=0;" edge="1" parent="1" source="nO0uFSHonunVZNYL5XH_-10" target="nO0uFSHonunVZNYL5XH_-12">
          <mxGeometry width="50" height="50" relative="1" as="geometry">
            <mxPoint x="750" y="370" as="sourcePoint" />
            <mxPoint x="800" y="320" as="targetPoint" />
          </mxGeometry>
        </mxCell>
        <mxCell id="nO0uFSHonunVZNYL5XH_-34" value="&lt;h1&gt;MRA - Microservices Reference Architecture&lt;/h1&gt;" style="text;html=1;strokeColor=none;fillColor=none;spacing=5;spacingTop=-20;whiteSpace=wrap;overflow=hidden;rounded=0;" vertex="1" parent="1">
          <mxGeometry x="210" y="10" width="550" height="30" as="geometry" />
        </mxCell>
        <mxCell id="nO0uFSHonunVZNYL5XH_-35" value="&lt;b&gt;1.&amp;nbsp;&lt;u&gt;Proxy Model&lt;/u&gt;&lt;/b&gt;" style="text;html=1;strokeColor=none;fillColor=none;align=center;verticalAlign=middle;whiteSpace=wrap;rounded=0;" vertex="1" parent="1">
          <mxGeometry x="440" y="60" width="160" height="30" as="geometry" />
        </mxCell>
        <mxCell id="nO0uFSHonunVZNYL5XH_-36" style="edgeStyle=orthogonalEdgeStyle;rounded=0;orthogonalLoop=1;jettySize=auto;html=1;entryX=0;entryY=0.5;entryDx=0;entryDy=0;" edge="1" parent="1" source="nO0uFSHonunVZNYL5XH_-37" target="nO0uFSHonunVZNYL5XH_-42">
          <mxGeometry relative="1" as="geometry" />
        </mxCell>
        <mxCell id="nO0uFSHonunVZNYL5XH_-37" value="User" style="sketch=0;outlineConnect=0;fontColor=#232F3E;gradientColor=none;strokeColor=#232F3E;fillColor=#ffffff;dashed=0;verticalLabelPosition=bottom;verticalAlign=top;align=center;html=1;fontSize=12;fontStyle=0;aspect=fixed;shape=mxgraph.aws4.resourceIcon;resIcon=mxgraph.aws4.user;" vertex="1" parent="1">
          <mxGeometry x="40" y="710" width="60" height="60" as="geometry" />
        </mxCell>
        <mxCell id="nO0uFSHonunVZNYL5XH_-42" value="API Gateway" style="shape=hexagon;perimeter=hexagonPerimeter2;whiteSpace=wrap;html=1;fixedSize=1;" vertex="1" parent="1">
          <mxGeometry x="160" y="695" width="120" height="90" as="geometry" />
        </mxCell>
        <mxCell id="nO0uFSHonunVZNYL5XH_-43" value="Web Pages 1" style="whiteSpace=wrap;html=1;aspect=fixed;" vertex="1" parent="1">
          <mxGeometry x="400" y="580" width="80" height="80" as="geometry" />
        </mxCell>
        <mxCell id="nO0uFSHonunVZNYL5XH_-44" value="Web Pages 2" style="whiteSpace=wrap;html=1;aspect=fixed;" vertex="1" parent="1">
          <mxGeometry x="400" y="700" width="80" height="80" as="geometry" />
        </mxCell>
        <mxCell id="nO0uFSHonunVZNYL5XH_-45" value="Web Pages 3" style="whiteSpace=wrap;html=1;aspect=fixed;" vertex="1" parent="1">
          <mxGeometry x="400" y="820" width="80" height="80" as="geometry" />
        </mxCell>
        <mxCell id="nO0uFSHonunVZNYL5XH_-46" value="Service 1" style="whiteSpace=wrap;html=1;aspect=fixed;" vertex="1" parent="1">
          <mxGeometry x="560" y="580" width="80" height="80" as="geometry" />
        </mxCell>
        <mxCell id="nO0uFSHonunVZNYL5XH_-47" value="Service 2" style="whiteSpace=wrap;html=1;aspect=fixed;" vertex="1" parent="1">
          <mxGeometry x="720" y="580" width="80" height="80" as="geometry" />
        </mxCell>
        <mxCell id="nO0uFSHonunVZNYL5XH_-49" value="Service 6" style="whiteSpace=wrap;html=1;aspect=fixed;" vertex="1" parent="1">
          <mxGeometry x="720" y="820" width="80" height="80" as="geometry" />
        </mxCell>
        <mxCell id="nO0uFSHonunVZNYL5XH_-50" value="Service 5" style="whiteSpace=wrap;html=1;aspect=fixed;" vertex="1" parent="1">
          <mxGeometry x="560" y="820" width="80" height="80" as="geometry" />
        </mxCell>
        <mxCell id="nO0uFSHonunVZNYL5XH_-51" value="Service 4" style="whiteSpace=wrap;html=1;aspect=fixed;" vertex="1" parent="1">
          <mxGeometry x="720" y="700" width="80" height="80" as="geometry" />
        </mxCell>
        <mxCell id="nO0uFSHonunVZNYL5XH_-52" value="" style="endArrow=none;html=1;rounded=0;entryX=0.185;entryY=0.124;entryDx=0;entryDy=0;entryPerimeter=0;" edge="1" parent="1" source="nO0uFSHonunVZNYL5XH_-43" target="nO0uFSHonunVZNYL5XH_-64">
          <mxGeometry width="50" height="50" relative="1" as="geometry">
            <mxPoint x="510" y="670" as="sourcePoint" />
            <mxPoint x="580" y="710" as="targetPoint" />
          </mxGeometry>
        </mxCell>
        <mxCell id="nO0uFSHonunVZNYL5XH_-53" value="" style="endArrow=none;html=1;rounded=0;entryX=0.5;entryY=1;entryDx=0;entryDy=0;" edge="1" parent="1" target="nO0uFSHonunVZNYL5XH_-46">
          <mxGeometry width="50" height="50" relative="1" as="geometry">
            <mxPoint x="600" y="700" as="sourcePoint" />
            <mxPoint x="650" y="660" as="targetPoint" />
          </mxGeometry>
        </mxCell>
        <mxCell id="nO0uFSHonunVZNYL5XH_-54" value="" style="endArrow=none;html=1;rounded=0;entryX=0;entryY=0.5;entryDx=0;entryDy=0;" edge="1" parent="1" source="nO0uFSHonunVZNYL5XH_-44">
          <mxGeometry width="50" height="50" relative="1" as="geometry">
            <mxPoint x="480" y="790" as="sourcePoint" />
            <mxPoint x="560" y="740" as="targetPoint" />
            <Array as="points">
              <mxPoint x="510" y="740" />
            </Array>
          </mxGeometry>
        </mxCell>
        <mxCell id="nO0uFSHonunVZNYL5XH_-55" value="" style="endArrow=none;html=1;rounded=0;exitX=1;exitY=0.5;exitDx=0;exitDy=0;entryX=0.175;entryY=0.871;entryDx=0;entryDy=0;entryPerimeter=0;" edge="1" parent="1" source="nO0uFSHonunVZNYL5XH_-45" target="nO0uFSHonunVZNYL5XH_-64">
          <mxGeometry width="50" height="50" relative="1" as="geometry">
            <mxPoint x="550" y="900" as="sourcePoint" />
            <mxPoint x="600" y="850" as="targetPoint" />
          </mxGeometry>
        </mxCell>
        <mxCell id="nO0uFSHonunVZNYL5XH_-57" value="" style="endArrow=none;html=1;rounded=0;entryX=0.5;entryY=1;entryDx=0;entryDy=0;" edge="1" parent="1" source="nO0uFSHonunVZNYL5XH_-50">
          <mxGeometry width="50" height="50" relative="1" as="geometry">
            <mxPoint x="590" y="830" as="sourcePoint" />
            <mxPoint x="600" y="780" as="targetPoint" />
          </mxGeometry>
        </mxCell>
        <mxCell id="nO0uFSHonunVZNYL5XH_-58" value="" style="endArrow=none;html=1;rounded=0;exitX=0.855;exitY=0.187;exitDx=0;exitDy=0;entryX=0;entryY=0.5;entryDx=0;entryDy=0;exitPerimeter=0;" edge="1" parent="1" source="nO0uFSHonunVZNYL5XH_-64" target="nO0uFSHonunVZNYL5XH_-47">
          <mxGeometry width="50" height="50" relative="1" as="geometry">
            <mxPoint x="660" y="670" as="sourcePoint" />
            <mxPoint x="710" y="620" as="targetPoint" />
            <Array as="points">
              <mxPoint x="630" y="710" />
            </Array>
          </mxGeometry>
        </mxCell>
        <mxCell id="nO0uFSHonunVZNYL5XH_-59" value="" style="endArrow=none;html=1;rounded=0;entryX=0;entryY=0.5;entryDx=0;entryDy=0;exitX=1;exitY=0.5;exitDx=0;exitDy=0;" edge="1" parent="1" target="nO0uFSHonunVZNYL5XH_-51">
          <mxGeometry width="50" height="50" relative="1" as="geometry">
            <mxPoint x="640" y="740" as="sourcePoint" />
            <mxPoint x="700" y="740" as="targetPoint" />
          </mxGeometry>
        </mxCell>
        <mxCell id="nO0uFSHonunVZNYL5XH_-60" value="" style="endArrow=none;html=1;rounded=0;entryX=0.875;entryY=0.844;entryDx=0;entryDy=0;entryPerimeter=0;" edge="1" parent="1" source="nO0uFSHonunVZNYL5XH_-49" target="nO0uFSHonunVZNYL5XH_-64">
          <mxGeometry width="50" height="50" relative="1" as="geometry">
            <mxPoint x="649.2893218813452" y="910" as="sourcePoint" />
            <mxPoint x="649.2893218813452" y="860" as="targetPoint" />
            <Array as="points">
              <mxPoint x="630" y="770" />
            </Array>
          </mxGeometry>
        </mxCell>
        <mxCell id="nO0uFSHonunVZNYL5XH_-61" value="" style="endArrow=none;html=1;rounded=0;entryX=0.5;entryY=1;entryDx=0;entryDy=0;exitX=0.5;exitY=0;exitDx=0;exitDy=0;" edge="1" parent="1" source="nO0uFSHonunVZNYL5XH_-51" target="nO0uFSHonunVZNYL5XH_-47">
          <mxGeometry width="50" height="50" relative="1" as="geometry">
            <mxPoint x="750" y="710" as="sourcePoint" />
            <mxPoint x="800" y="660" as="targetPoint" />
          </mxGeometry>
        </mxCell>
        <mxCell id="nO0uFSHonunVZNYL5XH_-62" value="" style="endArrow=none;html=1;rounded=0;entryX=0.5;entryY=1;entryDx=0;entryDy=0;exitX=0.5;exitY=0;exitDx=0;exitDy=0;" edge="1" parent="1" source="nO0uFSHonunVZNYL5XH_-49" target="nO0uFSHonunVZNYL5XH_-51">
          <mxGeometry width="50" height="50" relative="1" as="geometry">
            <mxPoint x="750" y="830" as="sourcePoint" />
            <mxPoint x="800" y="780" as="targetPoint" />
          </mxGeometry>
        </mxCell>
        <mxCell id="nO0uFSHonunVZNYL5XH_-63" value="&lt;b&gt;2.&amp;nbsp;&lt;u&gt;Router Mesh Model&lt;/u&gt;&lt;/b&gt;" style="text;html=1;strokeColor=none;fillColor=none;align=center;verticalAlign=middle;whiteSpace=wrap;rounded=0;" vertex="1" parent="1">
          <mxGeometry x="440" y="520" width="160" height="30" as="geometry" />
        </mxCell>
        <mxCell id="nO0uFSHonunVZNYL5XH_-64" value="Router" style="shape=hexagon;perimeter=hexagonPerimeter2;whiteSpace=wrap;html=1;fixedSize=1;" vertex="1" parent="1">
          <mxGeometry x="560" y="695" width="80" height="90" as="geometry" />
        </mxCell>
        <mxCell id="nO0uFSHonunVZNYL5XH_-71" value="" style="curved=1;endArrow=classic;html=1;rounded=0;entryX=0;entryY=0.25;entryDx=0;entryDy=0;" edge="1" parent="1" target="nO0uFSHonunVZNYL5XH_-64">
          <mxGeometry width="50" height="50" relative="1" as="geometry">
            <mxPoint x="280" y="740" as="sourcePoint" />
            <mxPoint x="330" y="690" as="targetPoint" />
            <Array as="points">
              <mxPoint x="330" y="740" />
              <mxPoint x="350" y="700" />
              <mxPoint x="390" y="680" />
              <mxPoint x="440" y="680" />
              <mxPoint x="480" y="680" />
            </Array>
          </mxGeometry>
        </mxCell>
        <mxCell id="nO0uFSHonunVZNYL5XH_-77" value="" style="curved=1;endArrow=classic;html=1;rounded=0;" edge="1" parent="1">
          <mxGeometry width="50" height="50" relative="1" as="geometry">
            <mxPoint x="290" y="740" as="sourcePoint" />
            <mxPoint x="570" y="760" as="targetPoint" />
            <Array as="points">
              <mxPoint x="340" y="740" />
              <mxPoint x="350" y="770" />
              <mxPoint x="360" y="790" />
              <mxPoint x="450" y="810" />
            </Array>
          </mxGeometry>
        </mxCell>
        <mxCell id="nO0uFSHonunVZNYL5XH_-78" style="edgeStyle=orthogonalEdgeStyle;rounded=0;orthogonalLoop=1;jettySize=auto;html=1;entryX=0;entryY=0.5;entryDx=0;entryDy=0;" edge="1" parent="1" source="nO0uFSHonunVZNYL5XH_-79" target="nO0uFSHonunVZNYL5XH_-80">
          <mxGeometry relative="1" as="geometry" />
        </mxCell>
        <mxCell id="nO0uFSHonunVZNYL5XH_-79" value="User" style="sketch=0;outlineConnect=0;fontColor=#232F3E;gradientColor=none;strokeColor=#232F3E;fillColor=#ffffff;dashed=0;verticalLabelPosition=bottom;verticalAlign=top;align=center;html=1;fontSize=12;fontStyle=0;aspect=fixed;shape=mxgraph.aws4.resourceIcon;resIcon=mxgraph.aws4.user;" vertex="1" parent="1">
          <mxGeometry x="45" y="1150" width="60" height="60" as="geometry" />
        </mxCell>
        <mxCell id="nO0uFSHonunVZNYL5XH_-80" value="API Gateway" style="shape=hexagon;perimeter=hexagonPerimeter2;whiteSpace=wrap;html=1;fixedSize=1;" vertex="1" parent="1">
          <mxGeometry x="160" y="1135" width="120" height="90" as="geometry" />
        </mxCell>
        <mxCell id="nO0uFSHonunVZNYL5XH_-99" value="&lt;b&gt;3.&amp;nbsp;&lt;u&gt;Fabric Model&lt;/u&gt;&lt;/b&gt;" style="text;html=1;strokeColor=none;fillColor=none;align=center;verticalAlign=middle;whiteSpace=wrap;rounded=0;" vertex="1" parent="1">
          <mxGeometry x="510" y="960" width="160" height="30" as="geometry" />
        </mxCell>
        <mxCell id="nO0uFSHonunVZNYL5XH_-108" value="" style="whiteSpace=wrap;html=1;aspect=fixed;" vertex="1" parent="1">
          <mxGeometry x="400" y="990" width="370" height="370" as="geometry" />
        </mxCell>
        <mxCell id="nO0uFSHonunVZNYL5XH_-112" value="Service 1" style="whiteSpace=wrap;html=1;aspect=fixed;" vertex="1" parent="1">
          <mxGeometry x="550" y="1020" width="80" height="80" as="geometry" />
        </mxCell>
        <mxCell id="nO0uFSHonunVZNYL5XH_-113" value="" style="endArrow=none;html=1;rounded=0;exitX=0;exitY=0.25;exitDx=0;exitDy=0;" edge="1" parent="1" source="nO0uFSHonunVZNYL5XH_-112">
          <mxGeometry width="50" height="50" relative="1" as="geometry">
            <mxPoint x="575" y="1240" as="sourcePoint" />
            <mxPoint x="575" y="1020" as="targetPoint" />
            <Array as="points" />
          </mxGeometry>
        </mxCell>
        <mxCell id="nO0uFSHonunVZNYL5XH_-114" value="Pages 2" style="whiteSpace=wrap;html=1;aspect=fixed;" vertex="1" parent="1">
          <mxGeometry x="425" y="1130" width="80" height="80" as="geometry" />
        </mxCell>
        <mxCell id="nO0uFSHonunVZNYL5XH_-115" value="" style="endArrow=none;html=1;rounded=0;exitX=0;exitY=0.25;exitDx=0;exitDy=0;" edge="1" parent="1" source="nO0uFSHonunVZNYL5XH_-114">
          <mxGeometry width="50" height="50" relative="1" as="geometry">
            <mxPoint x="455" y="1350" as="sourcePoint" />
            <mxPoint x="455" y="1130" as="targetPoint" />
            <Array as="points" />
          </mxGeometry>
        </mxCell>
        <mxCell id="nO0uFSHonunVZNYL5XH_-116" value="Service 3" style="whiteSpace=wrap;html=1;aspect=fixed;" vertex="1" parent="1">
          <mxGeometry x="550" y="1130" width="80" height="80" as="geometry" />
        </mxCell>
        <mxCell id="nO0uFSHonunVZNYL5XH_-117" value="" style="endArrow=none;html=1;rounded=0;exitX=0;exitY=0.25;exitDx=0;exitDy=0;" edge="1" parent="1" source="nO0uFSHonunVZNYL5XH_-116">
          <mxGeometry width="50" height="50" relative="1" as="geometry">
            <mxPoint x="565" y="1350" as="sourcePoint" />
            <mxPoint x="565" y="1130" as="targetPoint" />
            <Array as="points" />
          </mxGeometry>
        </mxCell>
        <mxCell id="nO0uFSHonunVZNYL5XH_-118" value="Pages 3" style="whiteSpace=wrap;html=1;aspect=fixed;" vertex="1" parent="1">
          <mxGeometry x="425" y="1240" width="80" height="80" as="geometry" />
        </mxCell>
        <mxCell id="nO0uFSHonunVZNYL5XH_-119" value="" style="endArrow=none;html=1;rounded=0;exitX=0;exitY=0.25;exitDx=0;exitDy=0;" edge="1" parent="1" source="nO0uFSHonunVZNYL5XH_-118">
          <mxGeometry width="50" height="50" relative="1" as="geometry">
            <mxPoint x="455" y="1460" as="sourcePoint" />
            <mxPoint x="455" y="1240" as="targetPoint" />
            <Array as="points" />
          </mxGeometry>
        </mxCell>
        <mxCell id="nO0uFSHonunVZNYL5XH_-120" value="Service 5" style="whiteSpace=wrap;html=1;aspect=fixed;" vertex="1" parent="1">
          <mxGeometry x="550" y="1240" width="80" height="80" as="geometry" />
        </mxCell>
        <mxCell id="nO0uFSHonunVZNYL5XH_-121" value="" style="endArrow=none;html=1;rounded=0;exitX=0;exitY=0.25;exitDx=0;exitDy=0;" edge="1" parent="1" source="nO0uFSHonunVZNYL5XH_-120">
          <mxGeometry width="50" height="50" relative="1" as="geometry">
            <mxPoint x="565" y="1460" as="sourcePoint" />
            <mxPoint x="565" y="1240" as="targetPoint" />
            <Array as="points" />
          </mxGeometry>
        </mxCell>
        <mxCell id="nO0uFSHonunVZNYL5XH_-122" value="Service 2" style="whiteSpace=wrap;html=1;aspect=fixed;" vertex="1" parent="1">
          <mxGeometry x="660" y="1020" width="80" height="80" as="geometry" />
        </mxCell>
        <mxCell id="nO0uFSHonunVZNYL5XH_-123" value="" style="endArrow=none;html=1;rounded=0;exitX=0;exitY=0.25;exitDx=0;exitDy=0;" edge="1" parent="1" source="nO0uFSHonunVZNYL5XH_-122">
          <mxGeometry width="50" height="50" relative="1" as="geometry">
            <mxPoint x="675" y="1240" as="sourcePoint" />
            <mxPoint x="675" y="1020" as="targetPoint" />
            <Array as="points" />
          </mxGeometry>
        </mxCell>
        <mxCell id="nO0uFSHonunVZNYL5XH_-124" value="Service 4" style="whiteSpace=wrap;html=1;aspect=fixed;" vertex="1" parent="1">
          <mxGeometry x="660" y="1130" width="80" height="80" as="geometry" />
        </mxCell>
        <mxCell id="nO0uFSHonunVZNYL5XH_-125" value="" style="endArrow=none;html=1;rounded=0;exitX=0;exitY=0.25;exitDx=0;exitDy=0;" edge="1" parent="1" source="nO0uFSHonunVZNYL5XH_-124">
          <mxGeometry width="50" height="50" relative="1" as="geometry">
            <mxPoint x="675" y="1350" as="sourcePoint" />
            <mxPoint x="675" y="1130" as="targetPoint" />
            <Array as="points" />
          </mxGeometry>
        </mxCell>
        <mxCell id="nO0uFSHonunVZNYL5XH_-126" value="Service 6" style="whiteSpace=wrap;html=1;aspect=fixed;" vertex="1" parent="1">
          <mxGeometry x="660" y="1240" width="80" height="80" as="geometry" />
        </mxCell>
        <mxCell id="nO0uFSHonunVZNYL5XH_-127" value="" style="endArrow=none;html=1;rounded=0;exitX=0;exitY=0.25;exitDx=0;exitDy=0;" edge="1" parent="1" source="nO0uFSHonunVZNYL5XH_-126">
          <mxGeometry width="50" height="50" relative="1" as="geometry">
            <mxPoint x="675" y="1460" as="sourcePoint" />
            <mxPoint x="675" y="1240" as="targetPoint" />
            <Array as="points" />
          </mxGeometry>
        </mxCell>
        <mxCell id="nO0uFSHonunVZNYL5XH_-129" value="Pages 1" style="whiteSpace=wrap;html=1;aspect=fixed;" vertex="1" parent="1">
          <mxGeometry x="425" y="1020" width="80" height="80" as="geometry" />
        </mxCell>
        <mxCell id="nO0uFSHonunVZNYL5XH_-130" value="" style="endArrow=none;html=1;rounded=0;exitX=0;exitY=0.25;exitDx=0;exitDy=0;" edge="1" parent="1" source="nO0uFSHonunVZNYL5XH_-129">
          <mxGeometry width="50" height="50" relative="1" as="geometry">
            <mxPoint x="455" y="1240" as="sourcePoint" />
            <mxPoint x="455" y="1020" as="targetPoint" />
            <Array as="points" />
          </mxGeometry>
        </mxCell>
        <mxCell id="nO0uFSHonunVZNYL5XH_-132" value="" style="endArrow=classic;html=1;rounded=0;exitX=1;exitY=0.5;exitDx=0;exitDy=0;" edge="1" parent="1" source="nO0uFSHonunVZNYL5XH_-80">
          <mxGeometry width="50" height="50" relative="1" as="geometry">
            <mxPoint x="290" y="1180" as="sourcePoint" />
            <mxPoint x="402" y="1180" as="targetPoint" />
          </mxGeometry>
        </mxCell>
        <mxCell id="nO0uFSHonunVZNYL5XH_-133" style="edgeStyle=orthogonalEdgeStyle;rounded=0;orthogonalLoop=1;jettySize=auto;html=1;" edge="1" parent="1" source="nO0uFSHonunVZNYL5XH_-129" target="nO0uFSHonunVZNYL5XH_-129">
          <mxGeometry relative="1" as="geometry" />
        </mxCell>
        <mxCell id="nO0uFSHonunVZNYL5XH_-134" style="edgeStyle=orthogonalEdgeStyle;rounded=0;orthogonalLoop=1;jettySize=auto;html=1;" edge="1" parent="1" source="nO0uFSHonunVZNYL5XH_-112" target="nO0uFSHonunVZNYL5XH_-112">
          <mxGeometry relative="1" as="geometry" />
        </mxCell>
        <mxCell id="nO0uFSHonunVZNYL5XH_-135" style="edgeStyle=orthogonalEdgeStyle;rounded=0;orthogonalLoop=1;jettySize=auto;html=1;" edge="1" parent="1" source="nO0uFSHonunVZNYL5XH_-122" target="nO0uFSHonunVZNYL5XH_-122">
          <mxGeometry relative="1" as="geometry" />
        </mxCell>
        <mxCell id="nO0uFSHonunVZNYL5XH_-136" style="edgeStyle=orthogonalEdgeStyle;rounded=0;orthogonalLoop=1;jettySize=auto;html=1;" edge="1" parent="1" source="nO0uFSHonunVZNYL5XH_-124" target="nO0uFSHonunVZNYL5XH_-124">
          <mxGeometry relative="1" as="geometry" />
        </mxCell>
        <mxCell id="nO0uFSHonunVZNYL5XH_-137" style="edgeStyle=orthogonalEdgeStyle;rounded=0;orthogonalLoop=1;jettySize=auto;html=1;" edge="1" parent="1" source="nO0uFSHonunVZNYL5XH_-126" target="nO0uFSHonunVZNYL5XH_-126">
          <mxGeometry relative="1" as="geometry" />
        </mxCell>
        <mxCell id="nO0uFSHonunVZNYL5XH_-138" style="edgeStyle=orthogonalEdgeStyle;rounded=0;orthogonalLoop=1;jettySize=auto;html=1;entryX=1;entryY=0.5;entryDx=0;entryDy=0;" edge="1" parent="1" source="nO0uFSHonunVZNYL5XH_-120" target="nO0uFSHonunVZNYL5XH_-120">
          <mxGeometry relative="1" as="geometry">
            <Array as="points">
              <mxPoint x="650" y="1260" />
              <mxPoint x="650" y="1280" />
            </Array>
          </mxGeometry>
        </mxCell>
        <mxCell id="nO0uFSHonunVZNYL5XH_-139" style="edgeStyle=orthogonalEdgeStyle;rounded=0;orthogonalLoop=1;jettySize=auto;html=1;" edge="1" parent="1" source="nO0uFSHonunVZNYL5XH_-116" target="nO0uFSHonunVZNYL5XH_-116">
          <mxGeometry relative="1" as="geometry" />
        </mxCell>
        <mxCell id="nO0uFSHonunVZNYL5XH_-140" style="edgeStyle=orthogonalEdgeStyle;rounded=0;orthogonalLoop=1;jettySize=auto;html=1;" edge="1" parent="1" source="nO0uFSHonunVZNYL5XH_-114" target="nO0uFSHonunVZNYL5XH_-114">
          <mxGeometry relative="1" as="geometry" />
        </mxCell>
        <mxCell id="nO0uFSHonunVZNYL5XH_-141" style="edgeStyle=orthogonalEdgeStyle;rounded=0;orthogonalLoop=1;jettySize=auto;html=1;" edge="1" parent="1" source="nO0uFSHonunVZNYL5XH_-118" target="nO0uFSHonunVZNYL5XH_-118">
          <mxGeometry relative="1" as="geometry" />
        </mxCell>
        <mxCell id="nO0uFSHonunVZNYL5XH_-142" value="" style="endArrow=none;dashed=1;html=1;rounded=0;exitX=0.003;exitY=0.355;exitDx=0;exitDy=0;exitPerimeter=0;entryX=0.986;entryY=0.351;entryDx=0;entryDy=0;entryPerimeter=0;" edge="1" parent="1" source="nO0uFSHonunVZNYL5XH_-108" target="nO0uFSHonunVZNYL5XH_-108">
          <mxGeometry width="50" height="50" relative="1" as="geometry">
            <mxPoint x="410" y="1170" as="sourcePoint" />
            <mxPoint x="460" y="1120" as="targetPoint" />
          </mxGeometry>
        </mxCell>
        <mxCell id="nO0uFSHonunVZNYL5XH_-144" value="" style="endArrow=none;dashed=1;html=1;rounded=0;entryX=0.338;entryY=0;entryDx=0;entryDy=0;entryPerimeter=0;" edge="1" parent="1" target="nO0uFSHonunVZNYL5XH_-108">
          <mxGeometry width="50" height="50" relative="1" as="geometry">
            <mxPoint x="530" y="1360" as="sourcePoint" />
            <mxPoint x="580" y="990" as="targetPoint" />
          </mxGeometry>
        </mxCell>
        <mxCell id="nO0uFSHonunVZNYL5XH_-145" value="" style="endArrow=none;dashed=1;html=1;rounded=0;entryX=0.641;entryY=0.001;entryDx=0;entryDy=0;entryPerimeter=0;" edge="1" parent="1" target="nO0uFSHonunVZNYL5XH_-108">
          <mxGeometry width="50" height="50" relative="1" as="geometry">
            <mxPoint x="642" y="1360" as="sourcePoint" />
            <mxPoint x="690" y="990" as="targetPoint" />
          </mxGeometry>
        </mxCell>
        <mxCell id="nO0uFSHonunVZNYL5XH_-146" value="" style="endArrow=none;dashed=1;html=1;rounded=0;exitX=0.005;exitY=0.641;exitDx=0;exitDy=0;exitPerimeter=0;entryX=0.999;entryY=0.647;entryDx=0;entryDy=0;entryPerimeter=0;" edge="1" parent="1" source="nO0uFSHonunVZNYL5XH_-108" target="nO0uFSHonunVZNYL5XH_-108">
          <mxGeometry width="50" height="50" relative="1" as="geometry">
            <mxPoint x="400" y="1270" as="sourcePoint" />
            <mxPoint x="770" y="1220" as="targetPoint" />
          </mxGeometry>
        </mxCell>
      </root>
    </mxGraphModel>
  </diagram>
</mxfile>
